<?xml version="1.0" encoding="UTF-8" standalone="no"?>
<!-- Created with Inkscape (http://www.inkscape.org/) -->

<svg
   xmlns:dc="http://purl.org/dc/elements/1.1/"
   xmlns:cc="http://creativecommons.org/ns#"
   xmlns:rdf="http://www.w3.org/1999/02/22-rdf-syntax-ns#"
   xmlns:svg="http://www.w3.org/2000/svg"
   xmlns="http://www.w3.org/2000/svg"
   xmlns:sodipodi="http://sodipodi.sourceforge.net/DTD/sodipodi-0.dtd"
   xmlns:inkscape="http://www.inkscape.org/namespaces/inkscape"
   width="97.475212"
   height="30"
   id="svg2"
   version="1.1"
   inkscape:version="0.48.4 r9939"
   sodipodi:docname="djangit-logo.svg"
   inkscape:export-filename="/home/valberg/Documents/code/ornli-git/djangit/djangit-logo.png"
   inkscape:export-xdpi="90"
   inkscape:export-ydpi="90">
  <defs
     id="defs4">
    <clipPath
       id="clipPath3020"
       clipPathUnits="userSpaceOnUse">
      <path
         id="path3022"
         d="m 0,0 2183.73,0 0,912 L 0,912 0,0 z"
         inkscape:connector-curvature="0" />
    </clipPath>
  </defs>
  <sodipodi:namedview
     id="base"
     pagecolor="#ffffff"
     bordercolor="#666666"
     borderopacity="1.0"
     inkscape:pageopacity="0.0"
     inkscape:pageshadow="2"
     inkscape:zoom="0.98994949"
     inkscape:cx="70.090889"
     inkscape:cy="4.5374518"
     inkscape:document-units="px"
     inkscape:current-layer="g3012"
     showgrid="false"
     showguides="true"
     inkscape:guide-bbox="true"
     fit-margin-top="0"
     fit-margin-left="0"
     fit-margin-right="0"
     fit-margin-bottom="0"
     inkscape:window-width="873"
     inkscape:window-height="435"
     inkscape:window-x="772"
     inkscape:window-y="108"
     inkscape:window-maximized="0" />
  <metadata
     id="metadata7">
    <rdf:RDF>
      <cc:Work
         rdf:about="">
        <dc:format>image/svg+xml</dc:format>
        <dc:type
           rdf:resource="http://purl.org/dc/dcmitype/StillImage" />
        <dc:title></dc:title>
      </cc:Work>
    </rdf:RDF>
  </metadata>
  <g
     inkscape:label="Layer 1"
     inkscape:groupmode="layer"
     id="layer1"
     transform="translate(-177.56615,-319.11181)">
    <g
       transform="matrix(1.25,0,0,-1.25,252.088,369.36218)"
       inkscape:label="ink_ext_XXXXXX"
       id="g3012">
      <g
         id="g3070"
         transform="matrix(0.27150028,0,0,0.27150028,-40.925639,14.508296)">
        <g
           transform="translate(0,3.4195503)"
           id="g3065">
          <path
             inkscape:connector-curvature="0"
             d="m 130.873,60.1652 c -4.788,0 -8.354,-2.3511 -8.354,-8.0093 0,-4.2633 2.35,-7.2227 8.096,-7.2227 4.87,0 8.178,2.8695 8.178,7.3988 0,5.1328 -2.96,7.8332 -7.92,7.8332 z M 121.3,20.2133 c -1.133,-1.3906 -2.262,-2.868 -2.262,-4.6117 0,-3.4786 4.436,-4.5254 10.53,-4.5254 5.048,0 11.924,0.3535 11.924,5.0468 0,2.7895 -3.308,2.9622 -7.488,3.2243 l -12.704,0.866 z m 25.761,39.689 c 1.564,-2.0023 3.22,-4.7878 3.22,-8.791 0,-9.6601 -7.572,-15.3164 -18.535,-15.3164 -2.788,0 -5.312,0.3473 -6.877,0.7817 l -2.873,-4.6118 8.528,-0.521 c 15.058,-0.9594 23.932,-1.3954 23.932,-12.9661 0,-10.0109 -8.788,-15.6652 -23.932,-15.6652 -15.752,0 -21.757,4.00391 -21.757,10.8781 0,3.918 1.741,6.002 4.787,8.8782 -2.873,1.2144 -3.829,3.389 -3.829,5.7398 0,1.916 0.956,3.6562 2.525,5.3109 1.566,1.652 3.306,3.3078 5.395,5.2219 -4.264,2.0883 -7.485,6.6141 -7.485,13.0555 0,10.0074 6.615,16.8804 19.928,16.8804 3.743,0 6.007,-0.3445 8.009,-0.8699 l 16.972,0 0,-7.3957 -8.008,-0.6094"
             style="fill:#362701;fill-opacity:1;fill-rule:nonzero;stroke:none"
             id="path3024" />
          <path
             inkscape:connector-curvature="0"
             d="m 170.38,75.7168 c -4.962,0 -7.833,2.8746 -7.833,7.8371 0,4.9563 2.871,7.6563 7.833,7.6563 5.048,0 7.92,-2.7 7.92,-7.6563 0,-4.9625 -2.872,-7.8371 -7.92,-7.8371 z m -11.229,-52.3012 0,6.8719 4.44,0.6074 c 1.219,0.1766 1.392,0.4356 1.392,1.7442 l 0,25.5867 c 0,0.9554 -0.26,1.5672 -1.133,1.8262 l -4.699,1.655 0.957,7.0469 18.017,0 0,-36.1148 c 0,-1.395 0.084,-1.5676 1.393,-1.7442 l 4.439,-0.6074 0,-6.8719 -24.806,0"
             style="fill:#362701;fill-opacity:1;fill-rule:nonzero;stroke:none"
             id="path3026" />
          <path
             inkscape:connector-curvature="0"
             d="m 218.373,26.7895 c -3.744,-1.8254 -9.226,-3.4793 -14.189,-3.4793 -10.356,0 -14.271,4.1734 -14.271,14.0121 l 0,22.8004 c 0,0.5211 0,0.8707 -0.699,0.8707 l -6.091,0 0,7.7453 c 7.661,0.8726 10.705,4.7027 11.662,14.1886 l 8.269,0 0,-12.3625 c 0,-0.607 0,-0.8699 0.697,-0.8699 l 12.27,0 0,-8.7015 -12.967,0 0,-20.7989 c 0,-5.1355 1.22,-7.1355 5.917,-7.1355 2.44,0 4.961,0.6074 7.05,1.3914 l 2.352,-7.6609"
             style="fill:#362701;fill-opacity:1;fill-rule:nonzero;stroke:none"
             id="path3028" />
        </g>
        <flowRoot
           transform="matrix(2.2455424,0,0,-2.2455424,-142.66308,506.422)"
           style="font-size:40px;font-style:normal;font-weight:normal;line-height:125%;letter-spacing:0px;word-spacing:0px;fill:#000000;fill-opacity:1;stroke:none;font-family:Sans"
           id="flowRoot3057"
           xml:space="preserve"><flowRegion
             id="flowRegion3059"><rect
               y="174.53963"
               x="31.31473"
               height="240.41631"
               width="362.64478"
               id="rect3061" /></flowRegion><flowPara
             style="font-style:normal;font-variant:normal;font-weight:bold;font-stretch:normal;font-family:DTLProkyonST;-inkscape-font-specification:DTLProkyonST Bold"
             id="flowPara3063">djan</flowPara></flowRoot>      </g>
    </g>
  </g>
</svg>
